<svg width="512" height="512" viewBox="0 0 512 512" fill="none" xmlns="http://www.w3.org/2000/svg">
<g clip-path="url(#clip0_15_3)">
<rect width="512" height="512" fill="#003680"/>
<path d="M21.3099 236.97H50.8227V245.65H32.5942V253.245H49.5207V261.925H32.5942V275H21.3099V236.97ZM53.5972 277.116C53.9588 277.188 54.3205 277.26 54.6822 277.333C55.0439 277.405 55.4056 277.441 55.7672 277.441C57.5756 277.514 58.4798 276.483 58.4798 274.349V245.487H69.4386V276.031C69.4386 279.105 68.4259 281.528 66.4005 283.3C64.4113 285.109 61.6987 285.995 58.2628 285.959C55.7311 285.959 53.4706 285.561 51.4814 284.765L53.5972 277.116ZM63.905 231.436C65.5687 231.436 66.925 231.979 67.9738 233.064C69.0227 234.112 69.5471 235.451 69.5471 237.078C69.5471 238.742 69.0227 240.098 67.9738 241.147C66.925 242.196 65.5687 242.72 63.905 242.72C62.2774 242.72 60.9211 242.196 59.8361 241.147C58.7872 240.098 58.2628 238.742 58.2628 237.078C58.2628 235.451 58.7872 234.112 59.8361 233.064C60.9211 231.979 62.2774 231.436 63.905 231.436ZM93.3729 245.107C96.6641 245.107 99.5395 245.74 101.999 247.006C104.458 248.236 106.357 249.99 107.695 252.269C109.07 254.511 109.757 257.169 109.757 260.244C109.757 263.282 109.07 265.94 107.695 268.219C106.357 270.497 104.458 272.269 101.999 273.535C99.5395 274.765 96.6641 275.38 93.3729 275.38C90.0455 275.38 87.152 274.765 84.6926 273.535C82.2332 272.269 80.3163 270.497 78.942 268.219C77.6038 265.94 76.9347 263.282 76.9347 260.244C76.9347 257.169 77.6038 254.511 78.942 252.269C80.3163 249.99 82.2332 248.236 84.6926 247.006C87.152 245.74 90.0455 245.107 93.3729 245.107ZM93.3729 253.788C92.2879 253.788 91.3294 254.059 90.4975 254.601C89.7019 255.144 89.087 255.922 88.653 256.934C88.219 257.911 88.002 259.05 88.002 260.352C88.002 261.69 88.219 262.848 88.653 263.824C89.087 264.801 89.7019 265.56 90.4975 266.103C91.3294 266.645 92.2879 266.917 93.3729 266.917C94.4579 266.917 95.3983 266.645 96.194 266.103C96.9897 265.56 97.6045 264.801 98.0385 263.824C98.4725 262.848 98.6895 261.69 98.6895 260.352C98.6895 259.05 98.4725 257.911 98.0385 256.934C97.6045 255.922 96.9897 255.144 96.194 254.601C95.3983 254.059 94.4579 253.788 93.3729 253.788ZM137.565 254.927C135.684 254.674 134.039 254.764 132.628 255.198C131.254 255.632 130.187 256.337 129.427 257.314C128.668 258.254 128.288 259.448 128.288 260.895L125.792 260.406C125.792 257.26 126.263 254.529 127.203 252.214C128.179 249.9 129.554 248.127 131.326 246.898C133.098 245.668 135.178 245.053 137.565 245.053V254.927ZM117.329 245.487H128.288V275H117.329V245.487ZM155.812 245.107C158.235 245.107 160.315 245.722 162.051 246.952C163.787 248.182 165.143 249.918 166.12 252.16C167.096 254.402 167.584 257.061 167.584 260.135C167.584 263.245 167.114 265.94 166.174 268.219C165.233 270.497 163.895 272.269 162.159 273.535C160.459 274.765 158.434 275.38 156.083 275.38C153.334 275.38 150.929 274.765 148.868 273.535C146.842 272.269 145.251 270.479 144.093 268.164C142.972 265.85 142.412 263.155 142.412 260.081C142.412 257.043 142.954 254.421 144.039 252.214C145.16 249.972 146.734 248.236 148.759 247.006C150.784 245.74 153.135 245.107 155.812 245.107ZM158.85 253.788C157.765 253.788 156.806 254.059 155.974 254.601C155.179 255.144 154.564 255.922 154.13 256.934C153.696 257.911 153.479 259.05 153.479 260.352C153.479 261.69 153.696 262.848 154.13 263.824C154.564 264.801 155.179 265.578 155.974 266.157C156.806 266.7 157.765 266.971 158.85 266.971C159.935 266.971 160.875 266.7 161.671 266.157C162.467 265.578 163.081 264.801 163.515 263.824C163.949 262.848 164.166 261.69 164.166 260.352C164.166 259.05 163.949 257.911 163.515 256.934C163.081 255.922 162.467 255.144 161.671 254.601C160.875 254.059 159.935 253.788 158.85 253.788ZM164.166 234.745H175.125V275H164.166V234.745ZM212.693 250.804C211.5 249.212 210.089 247.965 208.462 247.06C206.834 246.12 205.225 245.65 203.633 245.65C202.367 245.65 201.174 245.903 200.053 246.409C198.968 246.916 198.009 247.621 197.177 248.525C196.345 249.429 195.694 250.496 195.224 251.726C194.79 252.956 194.573 254.294 194.573 255.741C194.573 257.187 194.79 258.544 195.224 259.81C195.694 261.039 196.345 262.106 197.177 263.01C198.009 263.915 198.968 264.62 200.053 265.126C201.174 265.633 202.367 265.886 203.633 265.886C205.116 265.886 206.671 265.488 208.299 264.692C209.963 263.86 211.427 262.775 212.693 261.437L219.203 268.381C217.829 269.864 216.256 271.166 214.484 272.287C212.711 273.409 210.849 274.277 208.896 274.891C206.943 275.47 205.008 275.76 203.091 275.76C200.161 275.76 197.485 275.271 195.061 274.295C192.638 273.282 190.522 271.89 188.714 270.117C186.906 268.345 185.495 266.247 184.482 263.824C183.506 261.365 183.018 258.706 183.018 255.849C183.018 253.028 183.524 250.442 184.537 248.091C185.549 245.704 186.978 243.625 188.823 241.852C190.703 240.08 192.873 238.706 195.333 237.729C197.828 236.753 200.541 236.264 203.47 236.264C205.423 236.264 207.358 236.554 209.275 237.132C211.192 237.675 213.001 238.453 214.701 239.465C216.437 240.478 217.938 241.671 219.203 243.046L212.693 250.804ZM236.977 262.631C235.892 262.631 235.06 262.866 234.482 263.336C233.939 263.77 233.668 264.457 233.668 265.397C233.668 266.302 233.957 267.025 234.536 267.568C235.114 268.074 235.928 268.327 236.977 268.327C237.737 268.327 238.442 268.2 239.093 267.947C239.744 267.694 240.323 267.351 240.829 266.917C241.335 266.446 241.715 265.904 241.968 265.289L243.325 269.195C242.601 271.184 241.39 272.74 239.69 273.861C237.99 274.946 235.874 275.488 233.342 275.488C231.245 275.488 229.454 275.109 227.971 274.349C226.488 273.553 225.349 272.468 224.554 271.094C223.758 269.683 223.36 268.056 223.36 266.211C223.36 263.354 224.337 261.166 226.29 259.647C228.243 258.092 231.064 257.296 234.753 257.26H242.945V262.631H236.977ZM241.968 257.151C241.968 255.922 241.534 254.963 240.666 254.276C239.798 253.589 238.532 253.245 236.869 253.245C235.675 253.245 234.301 253.426 232.745 253.788C231.19 254.149 229.599 254.674 227.971 255.361L225.259 248.091C226.886 247.44 228.496 246.88 230.087 246.409C231.679 245.939 233.252 245.596 234.807 245.379C236.398 245.162 237.954 245.053 239.473 245.053C243.632 245.053 246.869 245.994 249.184 247.874C251.535 249.755 252.71 252.413 252.71 255.849V275H241.968V257.151ZM281.107 245.107C283.855 245.107 286.242 245.74 288.268 247.006C290.329 248.272 291.921 250.062 293.042 252.377C294.199 254.656 294.778 257.332 294.778 260.406C294.778 263.408 294.217 266.03 293.096 268.273C292.011 270.515 290.456 272.269 288.43 273.535C286.441 274.765 284.09 275.38 281.378 275.38C278.991 275.38 276.911 274.765 275.139 273.535C273.403 272.306 272.046 270.569 271.07 268.327C270.13 266.048 269.659 263.39 269.659 260.352C269.659 257.242 270.112 254.547 271.016 252.269C271.956 249.99 273.276 248.236 274.976 247.006C276.712 245.74 278.756 245.107 281.107 245.107ZM278.34 253.571C277.291 253.571 276.369 253.842 275.573 254.384C274.777 254.927 274.144 255.705 273.674 256.717C273.24 257.694 273.023 258.833 273.023 260.135C273.023 261.437 273.24 262.594 273.674 263.607C274.144 264.584 274.777 265.343 275.573 265.886C276.369 266.428 277.291 266.7 278.34 266.7C279.425 266.7 280.365 266.428 281.161 265.886C281.993 265.343 282.626 264.584 283.06 263.607C283.494 262.594 283.711 261.437 283.711 260.135C283.711 258.833 283.494 257.694 283.06 256.717C282.626 255.705 281.993 254.927 281.161 254.384C280.365 253.842 279.425 253.571 278.34 253.571ZM262.064 234.745H273.023V275H262.064V234.745ZM302.399 245.487H313.358V275H302.399V245.487ZM307.933 231.436C309.596 231.436 310.953 231.979 312.001 233.064C313.05 234.112 313.575 235.451 313.575 237.078C313.575 238.742 313.05 240.098 312.001 241.147C310.953 242.196 309.596 242.72 307.933 242.72C306.305 242.72 304.949 242.196 303.864 241.147C302.815 240.098 302.29 238.742 302.29 237.078C302.29 235.451 302.815 234.112 303.864 233.064C304.949 231.979 306.305 231.436 307.933 231.436ZM343.262 259.43C343.262 257.947 342.864 256.79 342.069 255.958C341.309 255.09 340.296 254.656 339.031 254.656C337.548 254.692 336.372 255.234 335.504 256.283C334.636 257.332 334.202 258.706 334.202 260.406H331.707C331.707 257.187 332.177 254.421 333.117 252.106C334.094 249.791 335.468 248.037 337.24 246.843C339.013 245.65 341.128 245.053 343.588 245.053C345.685 245.053 347.53 245.505 349.121 246.409C350.749 247.314 351.997 248.616 352.865 250.316C353.769 252.015 354.221 254.005 354.221 256.283V275H343.262V259.43ZM323.243 245.487H334.202V275H323.243V245.487Z" fill="white"/>
<path d="M375.542 283.28V242.986L367.312 249.402C366.677 249.884 366.024 250.069 365.354 249.959C364.683 249.848 364.107 249.477 363.625 248.846C363.144 248.214 362.94 247.563 363.015 246.892C363.09 246.222 363.434 245.644 364.048 245.159L375.542 236.27V224.829C375.542 224.066 375.797 223.429 376.307 222.919C376.818 222.409 377.454 222.154 378.218 222.154C378.981 222.154 379.618 222.409 380.128 222.919C380.638 223.429 380.893 224.066 380.893 224.829V232.123L407.783 211.665C408.557 211.091 409.383 210.659 410.261 210.37C411.135 210.081 412.048 209.937 413.001 209.937C413.953 209.937 414.868 210.08 415.746 210.365C416.62 210.658 417.444 211.091 418.218 211.665L461.953 245.164C462.563 245.642 462.908 246.218 462.986 246.892C463.057 247.563 462.854 248.214 462.376 248.846C461.894 249.456 461.318 249.816 460.648 249.926C459.973 250.033 459.331 249.848 458.721 249.37L450.459 242.991V283.28C450.459 285.671 449.617 287.709 447.933 289.397C446.249 291.081 444.211 291.923 441.817 291.923H422.569C421.994 291.923 421.491 291.707 421.06 291.275C420.624 290.843 420.407 290.339 420.407 289.761V268.463C420.407 266.394 419.69 264.642 418.255 263.208C416.818 261.77 415.066 261.052 413.001 261.052C410.935 261.052 409.183 261.77 407.746 263.208C406.312 264.646 405.595 266.397 405.595 268.463V289.761C405.595 290.339 405.377 290.843 404.942 291.275C404.51 291.707 404.007 291.923 403.433 291.923H384.19C381.792 291.923 379.752 291.081 378.068 289.397C376.384 287.713 375.542 285.674 375.542 283.28ZM378.485 215.77C377.668 215.77 376.994 215.438 376.463 214.774C375.931 214.107 375.813 213.396 376.109 212.639C376.734 210.053 378.118 207.973 380.262 206.4C382.406 204.827 384.812 204.04 387.481 204.04C388.943 204.04 390.29 203.623 391.521 202.788C392.759 201.953 393.531 200.851 393.838 199.481C394.009 198.953 394.32 198.518 394.769 198.175C395.219 197.833 395.729 197.66 396.3 197.656C397.184 197.656 397.905 198.007 398.461 198.71C399.018 199.413 399.148 200.175 398.852 200.995C398.16 203.51 396.758 205.538 394.646 207.079C392.538 208.621 390.147 209.391 387.475 209.391C386.016 209.391 384.67 209.751 383.435 210.472C382.201 211.193 381.429 212.249 381.118 213.64C380.879 214.236 380.54 214.741 380.101 215.154C379.663 215.568 379.124 215.773 378.485 215.77Z" fill="white"/>
</g>
<defs>
<clipPath id="clip0_15_3">
<rect width="512" height="512" fill="white"/>
</clipPath>
</defs>
</svg>
